<svg id="Outline_Expand" data-name="Outline Expand" xmlns="http://www.w3.org/2000/svg" viewBox="0 0 64 64"><title>Picket fence</title><path d="M60.38,39.77V28.27a2.65,2.65,0,0,0,1.5-2.37V21a2.65,2.65,0,0,0-1.5-2.37V15.48a3.57,3.57,0,0,0-.27-1.38L57.36,7.27A3.67,3.67,0,0,0,53.91,5h0a3.63,3.63,0,0,0-3.42,2.32l-2,5-2-5A3.65,3.65,0,0,0,43,5h0a3.64,3.64,0,0,0-3.43,2.32l-2,5-2-5a3.7,3.7,0,0,0-6.86,0l-2,5-2-5A3.64,3.64,0,0,0,21.14,5h0a3.65,3.65,0,0,0-3.44,2.32l-2,5-2-5A3.62,3.62,0,0,0,10.22,5h0A3.68,3.68,0,0,0,6.76,7.27L4,14.09a3.67,3.67,0,0,0-.28,1.39v3.08A2.64,2.64,0,0,0,2,21V25.9a2.66,2.66,0,0,0,1.74,2.48V39.77a2.67,2.67,0,0,0-1.62,2.44v4.87a2.67,2.67,0,0,0,1.62,2.44v5.82a3.71,3.71,0,0,0,3.71,3.71H13a3.65,3.65,0,0,0,2.7-1.19,3.69,3.69,0,0,0,2.71,1.19h5.51a3.69,3.69,0,0,0,2.71-1.19,3.69,3.69,0,0,0,2.71,1.19h5.52a3.69,3.69,0,0,0,2.71-1.19,3.69,3.69,0,0,0,2.71,1.19h5.51a3.69,3.69,0,0,0,2.71-1.19,3.65,3.65,0,0,0,2.7,1.19h5.51a3.71,3.71,0,0,0,3.71-3.71V49.52A2.67,2.67,0,0,0,62,47.08V42.21A2.67,2.67,0,0,0,60.38,39.77ZM49.46,15.48a2,2,0,0,1,.11-.64L52.33,8A1.66,1.66,0,0,1,53.91,7h0A1.66,1.66,0,0,1,55.5,8l2.76,6.83a1.72,1.72,0,0,1,.12.63v2.91H49.46Zm-10.93,0a2,2,0,0,1,.12-.64L41.41,8A1.65,1.65,0,0,1,43,7h0A1.68,1.68,0,0,1,44.58,8l2.75,6.83a1.73,1.73,0,0,1,.13.63v2.91H38.53Zm-10.94,0a1.63,1.63,0,0,1,.13-.64L30.48,8a1.7,1.7,0,0,1,3.16,0l2.76,6.83a1.55,1.55,0,0,1,.13.63v2.91H27.59Zm-10.92,0a1.63,1.63,0,0,1,.13-.64L19.54,8A1.68,1.68,0,0,1,21.13,7h0A1.64,1.64,0,0,1,22.71,8l2.75,6.8a1.76,1.76,0,0,1,.13.66v2.91H16.67Zm-10.93,0a1.63,1.63,0,0,1,.13-.64L8.62,8A1.66,1.66,0,0,1,10.21,7h0A1.66,1.66,0,0,1,11.79,8l2.75,6.8a2,2,0,0,1,.13.66v2.91H5.74ZM4,21a.65.65,0,0,1,.57-.63.85.85,0,0,0,.17,0A1,1,0,0,0,5,20.39H58.91a1.06,1.06,0,0,0,.47.13.85.85,0,0,0,.17,0,.67.67,0,0,1,.33.55V25.9a.65.65,0,0,1-.33.55.85.85,0,0,0-.17,0,1,1,0,0,0-.47.14H5a.76.76,0,0,0-.26-.06,1.16,1.16,0,0,0-.18,0A.64.64,0,0,1,4,25.9Zm54.38,7.52v11H49.46v-11Zm-10.92,0v11H38.53v-11Zm-10.93,0v11H27.59v-11Zm-10.94,0v11H16.67v-11Zm-10.92,0v11H5.74v-11Zm0,26.79A1.72,1.72,0,0,1,13,57.05H7.45a1.71,1.71,0,0,1-1.71-1.71V49.72h8.93Zm10.92,0a1.72,1.72,0,0,1-1.71,1.71H18.37a1.71,1.71,0,0,1-1.7-1.71V49.72h8.92Zm10.94,0a1.72,1.72,0,0,1-1.71,1.71H29.3a1.72,1.72,0,0,1-1.71-1.71V49.72h8.94Zm10.93,0a1.72,1.72,0,0,1-1.71,1.71H40.24a1.72,1.72,0,0,1-1.71-1.71V49.72h8.93Zm10.92,0a1.71,1.71,0,0,1-1.71,1.71H51.16a1.71,1.71,0,0,1-1.7-1.71V49.72h8.92ZM60,47.08a.65.65,0,0,1-.39.59,1.85,1.85,0,0,0-.23,0,1.17,1.17,0,0,0-.42.09H5.16a1.17,1.17,0,0,0-.42-.09,1.43,1.43,0,0,0-.22,0,.64.64,0,0,1-.4-.59V42.21a.65.65,0,0,1,.42-.6.65.65,0,0,0,.2,0,.9.9,0,0,0,.4-.09H59a.9.9,0,0,0,.4.09.78.78,0,0,0,.21,0,.65.65,0,0,1,.41.6ZM10.32,23.47a1,1,0,0,1,1-1h.87a1,1,0,0,1,0,2h-.87A1,1,0,0,1,10.32,23.47Zm40.61,0a1,1,0,0,1,1-1h.87a1,1,0,0,1,0,2h-.87A1,1,0,0,1,50.93,23.47ZM13.19,44.65a1,1,0,0,1-1,1h-.87a1,1,0,0,1,0-2h.87A1,1,0,0,1,13.19,44.65Zm40.61,0a1,1,0,0,1-1,1h-.87a1,1,0,0,1,0-2h.87A1,1,0,0,1,53.8,44.65Z"/></svg>