<svg id="Capa_1" enable-background="new 0 0 509.999 509.999" viewBox="0 0 509.999 509.999" xmlns="http://www.w3.org/2000/svg"><g><g><path d="m54.548 156.197h54.545v343.472h-54.545z" fill="#f7b073"/><path d="m400.389 156.197h54.545v343.472h-54.545z" fill="#f7b073"/><path d="m54.548 352.212h54.545v147.442h-54.545z" fill="#d46b5c"/><path d="m400.389 352.212h54.545v147.442h-54.545z" fill="#d46b5c"/><g fill="#fde0be"><path d="m199.059 387.627h112.372v112.372h-112.372z"/><path d="m226.826 171.35h56.56v489.132h-56.56z" transform="matrix(0 1 -1 0 671.022 160.81)"/><path d="m255.245 9.999-1.814 1.215c-71.805 48.087-156.277 73.76-242.697 73.76h-.489v71.224h489.509v-71.224c-86.468 0-170.985-25.701-242.815-73.839z"/></g><path d="m54.548 156.197h54.545v58.142h-54.545z" fill="#d46b5c"/><path d="m400.389 156.197h54.545v58.142h-54.545z" fill="#d46b5c"/></g><path d="m499.672 377.635h-33.73v-211.438h33.813c2.652 0 5.196-1.054 7.071-2.929 1.875-1.876 2.929-4.419 2.929-7.071v-71.224c0-5.522-4.477-10-10-10-85.453.012-168.18-25.381-238.942-73.282-3.367-2.254-7.763-2.257-11.131-.001-70.763 47.899-153.498 73.297-238.948 73.284-5.677-.254-10.513 4.29-10.489 10v71.224c0 5.522 4.477 10 10 10h34.303v211.438h-34.008c-5.523 0-10 4.478-10 10v56.561c0 5.522 4.477 10 10 10h34.008v45.474c0 5.522 4.477 10 10 10h54.545c5.523 0 10-4.478 10-10v-45.474h69.966v45.804c0 5.523 4.477 10 10 10h112.372c5.523 0 10-4.477 10-10v-45.804h68.958v45.474c0 5.522 4.477 10 10 10h54.545c5.523 0 10-4.478 10-10v-45.474h34.738c5.523 0 10-4.478 10-10v-56.561c0-5.523-4.477-10.001-10-10.001zm-53.73 0h-36.56v-211.438h36.56zm-56.561-211.438v107.764h-270.288v-107.764zm-154.172 211.438v-83.674h38.058v83.674zm-116.116-83.674h38.058v83.674h-38.058zm58.058 0h38.058v83.674c-9.234 0-28.705 0-38.058 0zm124.28 103.674v36.561h-92.372v-36.561zm10.155-20c-.104-.008-.206-.008-.31 0h-18.01v-83.674h38.058v83.674zm39.738-83.674h38.058v83.674h-38.058zm-96.08-271.953c35.047 22.969 72.774 40.724 112.199 52.966h-224.4c39.425-12.242 77.153-29.996 112.201-52.966zm-234.999 72.966h469.51v51.224h-469.51zm44.303 71.223h34.545v211.438h-34.545zm34.545 323.472h-34.545v-35.474h34.545zm-78.553-55.473v-36.561h168.519v36.561zm280.891 55.803h-92.372v-35.804h92.372zm143.503-.33h-34.545v-35.474h34.545zm44.738-55.473h-168.241v-36.561h168.241z" fill="#052a75"/></g><g/><g/><g/><g/><g/><g/><g/><g/><g/><g/><g/><g/><g/><g/><g/></svg>