<?xml version="1.0" encoding="UTF-8"?>
<svg id="Capa_1" xmlns="http://www.w3.org/2000/svg" version="1.1" viewBox="0 0 800 800">
  <!-- Generator: Adobe Illustrator 30.1.0, SVG Export Plug-In . SVG Version: 2.1.1 Build 136)  -->
  <path d="M781.5,344.4c10.2,0,18.5-8.3,18.5-18.5v-84.8c0-10.2-8.3-18.5-18.5-18.5h-33.7v-49.6c0-13.1-3.8-25.8-10.9-36.8l-36.5-56.1c-3-4.5-8-7.3-13.4-7.3s-10.5,2.7-13.4,7.3l-36.5,56.1c-7.1,10.9-10.9,23.7-10.9,36.8v49.5h-69.6v-49.6c0-13.1-3.8-25.8-10.9-36.8l-36.5-56.1c-3-4.5-8-7.3-13.4-7.3s-10.5,2.7-13.4,7.3l-36.5,56.1c-7.1,10.9-10.9,23.7-10.9,36.8v49.5h-69.6v-49.6c0-13.1-3.8-25.8-10.9-36.8l-36.5-56.1c-3-4.5-8-7.3-13.4-7.3s-10.5,2.7-13.4,7.3l-36.5,56.1c-7.1,10.9-10.9,23.7-10.9,36.8v49.5h-69.6v-49.6c0-13.1-3.8-25.8-10.9-36.8l-36.5-56.1c-3-4.5-8-7.3-13.4-7.3s-10.5,2.7-13.4,7.3l-36.5,56.1c-7.1,10.9-10.9,23.7-10.9,36.8v49.6H18.5c-10.2,0-18.5,8.3-18.5,18.5v84.8c0,10.2,8.3,18.5,18.5,18.5h33.8v156.5H18.5c-10.2,0-18.5,8.3-18.5,18.5v84.8c0,10.2,8.3,18.5,18.5,18.5h33.7v85.9c0,10.2,8.3,18.5,18.5,18.5h84.8c10.2,0,18.5-8.3,18.5-18.5v-85.9h69.6v85.9c0,10.2,8.3,18.5,18.5,18.5h84.8c10.2,0,18.5-8.3,18.5-18.5v-85.9h69.6v85.9c0,10.2,8.3,18.5,18.5,18.5h84.8c10.2,0,18.5-8.3,18.5-18.5v-85.9h69.6v85.9c0,10.2,8.3,18.5,18.5,18.5h84.8c10.2,0,18.5-8.3,18.5-18.5v-85.9h33.7c10.2,0,18.5-8.3,18.5-18.5v-84.8c0-10.2-8.3-18.5-18.5-18.5h-33.7v-156.5h33.7ZM173.9,500.9v-156.5h69.6v156.5h-69.6ZM365.2,500.9v-156.5h69.6v156.5h-69.6ZM626,500.9h-69.6v-156.5h69.6v156.5Z" fill="#ae360e"/>
</svg>