<?xml version="1.0" encoding="UTF-8"?>
<svg id="Capa_1" xmlns="http://www.w3.org/2000/svg" version="1.1" viewBox="0 0 510 510">
  <!-- Generator: Adobe Illustrator 30.1.0, SVG Export Plug-In . SVG Version: 2.1.1 Build 136)  -->
  <path d="M499.8,166.2c2.7,0,5.2-1.1,7.1-2.9,1.9-1.9,2.9-4.4,2.9-7.1v-71.2c0-5.5-4.5-10-10-10-85.5,0-168.2-25.4-238.9-73.3-3.4-2.3-7.8-2.3-11.1,0C178.9,49.6,96.2,75,10.7,75c-5.7-.3-10.5,4.3-10.5,10v71.2c0,5.5,4.5,10,10,10h34.3v211.4H10.5c-5.5,0-10,4.5-10,10v56.6c0,5.5,4.5,10,10,10h34v45.5c0,5.5,4.5,10,10,10h54.5c5.5,0,10-4.5,10-10v-45.5h70v45.8c0,5.5,4.5,10,10,10h112.4c5.5,0,10-4.5,10-10v-45.8h69v45.5c0,5.5,4.5,10,10,10h54.5c5.5,0,10-4.5,10-10v-45.5h34.7c5.5,0,10-4.5,10-10v-56.6c0-5.5-4.5-10-10-10h0s-33.7,0-33.7,0v-211.4h33.8ZM177.2,377.6v-83.7h38.1v83.7h-38.1ZM235.2,377.6v-83.7h38.1v83.7h-38.1ZM311.3,377.6h-18v-83.7h38.1v83.7h-19.7c-.1,0-.2,0-.3,0ZM119.1,274v-107.8h270.3v107.8H119.1ZM157.2,294v83.7h-38.1v-83.7h38.1ZM351.3,294h38.1v83.7h-38.1v-83.7Z" fill="#ae360e"/>
</svg>