<?xml version="1.0" encoding="UTF-8"?>
<svg id="Capa_1" xmlns="http://www.w3.org/2000/svg" version="1.1" viewBox="0 0 800 800">
  <!-- Generator: Adobe Illustrator 30.1.0, SVG Export Plug-In . SVG Version: 2.1.1 Build 136)  -->
  <polygon points="560.9 171 346.4 332 346.4 734.2 386.6 734.2 386.6 352.1 560.9 221.3 735.2 352.1 735.2 734.2 775.5 734.2 775.5 332 560.9 171" fill="#ae360e"/>
  <rect x="453.6" y="533.1" width="107.3" height="201.1" fill="#ae360e"/>
  <rect x="614.5" y="533.1" width="67" height="93.9" fill="#ae360e"/>
  <path d="M24.5,425.8v308.4h295v-308.4H24.5ZM158.6,613.5h-67v-93.9h67v93.9Z" fill="#ae360e"/>
  <path d="M239.1,63.8L24.5,250v135.6h295v-67l114.3-85.7L239.1,63.8ZM265.9,224.7h-53.6v-53.6h53.6v53.6Z" fill="#ae360e"/>
  <rect x="534.1" y="318.5" width="53.6" height="53.6" fill="#ae360e"/>
</svg>